<?xml version="1.0" standalone="no"?>
<!DOCTYPE svg PUBLIC "-//W3C//DTD SVG 20010904//EN"
 "http://www.w3.org/TR/2001/REC-SVG-20010904/DTD/svg10.dtd">
<svg version="1.0" xmlns="http://www.w3.org/2000/svg"
 width="1134.000000pt" height="964.000000pt" viewBox="0 0 1134.000000 964.000000"
 preserveAspectRatio="xMidYMid meet">

<g transform="translate(0.000000,964.000000) scale(0.100000,-0.100000)"
fill="#000000" stroke="none">
<path d="M5567 8780 c-4 -8 -17 -60 -31 -115 l-23 -100 -54 3 c-30 2 -66 5
-81 8 -42 8 -34 -8 20 -38 26 -15 61 -38 77 -52 l30 -24 -37 -76 c-21 -42 -38
-81 -38 -86 0 -14 16 -12 32 3 51 48 105 87 121 87 11 0 46 -28 78 -61 33 -34
62 -59 65 -56 4 3 -12 43 -35 88 -41 82 -49 109 -32 109 12 0 101 80 101 92 0
6 -27 8 -67 6 l-68 -3 -12 50 c-6 28 -18 79 -26 115 -8 38 -17 59 -20 50z"/>
<path d="M3244 8099 c-38 -19 -54 -63 -66 -184 -10 -100 -14 -118 -32 -127
-11 -6 -28 -20 -37 -32 -36 -44 -92 -220 -101 -315 -3 -30 -8 -36 -35 -43 -66
-17 -109 -138 -120 -333 l-6 -120 -17 40 c-20 47 -44 70 -65 61 -31 -11 -48
-77 -54 -211 -6 -111 -9 -126 -19 -103 -29 69 -90 46 -117 -45 -9 -29 -19
-102 -22 -164 -6 -121 5 -207 38 -282 11 -24 17 -46 14 -49 -3 -3 -36 25 -75
62 -38 37 -75 66 -82 64 -9 -3 -14 -37 -16 -111 -3 -104 8 -171 47 -297 10
-35 10 -35 -35 18 -47 54 -68 63 -78 36 -24 -63 23 -214 132 -426 2 -4 -14 -7
-35 -5 l-38 2 1 -45 c2 -57 53 -190 103 -268 75 -115 170 -191 303 -240 75
-28 341 -56 471 -49 53 2 97 1 97 -4 0 -5 -5 -9 -10 -9 -16 0 -50 -62 -50 -92
0 -45 19 -73 73 -106 51 -30 130 -52 187 -52 17 0 30 -1 30 -2 0 -2 -14 -30
-30 -62 -39 -77 -40 -130 -4 -170 59 -63 178 -78 266 -32 27 14 51 26 53 26 2
0 -8 -35 -22 -77 -21 -67 -48 -190 -69 -323 -8 -49 -46 -118 -94 -169 -22 -24
-38 -46 -35 -49 10 -10 77 62 107 116 16 28 34 49 39 46 9 -5 6 -72 -7 -156
-6 -39 -41 -84 -97 -125 -21 -16 -26 -23 -14 -23 9 0 38 20 64 45 25 25 48 45
51 45 5 0 -7 -106 -14 -125 -3 -8 -26 -24 -51 -36 -38 -18 -56 -21 -121 -16
-75 5 -147 29 -156 52 -2 6 -2 24 1 39 5 22 17 32 60 51 46 21 115 65 101 65
-3 0 -31 -9 -64 -20 -119 -40 -223 -36 -279 13 -23 20 -25 25 -13 49 10 21 24
29 72 39 109 23 230 102 343 223 103 109 92 118 -13 12 -158 -159 -243 -202
-384 -194 -83 5 -162 35 -215 82 -25 22 -28 28 -15 36 8 5 21 10 29 10 7 0 60
20 117 45 56 25 105 45 108 45 9 0 169 97 205 124 20 15 28 26 20 26 -8 0 -24
-8 -35 -18 -37 -34 -209 -111 -267 -120 -159 -25 -324 33 -394 139 -26 40 -27
42 -8 55 10 8 29 14 42 14 13 0 23 4 23 9 0 6 24 7 55 4 137 -14 368 74 536
204 75 59 68 69 -9 15 -82 -57 -225 -128 -302 -149 -43 -12 -100 -18 -170 -18
-92 0 -112 4 -162 27 -31 14 -77 45 -101 67 -48 45 -96 136 -79 153 11 11 4
48 -9 48 -13 0 -29 -36 -29 -67 0 -43 46 -127 91 -168 22 -19 64 -48 94 -62
62 -30 69 -43 25 -43 -82 0 -42 -126 64 -199 55 -38 153 -71 211 -71 61 0 49
-16 -17 -24 -29 -4 -61 -13 -72 -21 -47 -35 44 -131 158 -167 85 -27 86 -27
63 -39 -21 -12 -22 -47 -1 -77 23 -33 72 -55 139 -61 44 -5 59 -10 57 -21 -15
-65 -14 -69 13 -94 33 -31 103 -55 180 -62 56 -6 85 0 158 31 15 6 17 1 17
-44 0 -72 27 -195 57 -263 23 -53 24 -61 14 -120 -6 -35 -16 -132 -22 -217
-27 -377 63 -754 251 -1052 82 -128 132 -191 267 -329 89 -93 129 -142 147
-181 47 -108 105 -306 117 -400 13 -107 36 -162 79 -184 38 -19 89 -20 96 0 8
19 24 20 24 1 0 -23 17 -28 60 -16 53 14 104 60 126 113 14 35 17 75 18 227 1
168 4 190 24 242 13 32 27 60 32 63 5 3 26 -1 46 -10 80 -33 236 -56 419 -62
179 -5 227 -1 490 38 97 15 127 9 157 -34 22 -30 23 -44 29 -227 7 -219 16
-260 75 -329 42 -49 91 -57 116 -19 14 21 16 21 32 5 22 -22 48 -22 94 2 79
40 86 55 162 361 11 47 39 123 61 168 36 75 56 99 183 225 173 173 270 301
358 472 105 206 171 429 197 667 22 200 10 573 -25 776 -5 32 -4 33 18 26 65
-21 185 15 238 71 19 21 22 28 11 34 -21 13 -5 28 38 35 43 7 121 70 121 98 0
9 -15 29 -33 45 -53 46 -52 51 2 51 97 1 191 43 206 93 8 23 -24 64 -57 75
-27 8 -22 27 7 22 105 -20 233 66 236 157 0 25 10 36 62 70 90 60 184 205 132
205 -22 0 -19 8 17 38 46 39 116 138 129 183 11 34 10 41 -7 60 -15 17 -27 20
-61 16 -52 -6 -54 2 -7 28 92 50 191 203 209 327 15 98 -22 115 -101 45 -116
-102 -216 -159 -366 -206 -97 -31 -253 -59 -264 -48 -12 12 18 37 45 37 43 0
160 27 254 59 183 62 335 168 400 279 72 123 147 372 149 495 5 318 -7 417
-48 417 -10 0 -14 6 -10 15 16 42 28 156 23 217 -6 73 -22 115 -49 132 -29 18
-50 -4 -83 -87 -40 -99 -59 -120 -38 -41 31 117 -2 388 -50 418 -19 11 -33 0
-63 -50 -9 -15 -12 5 -13 93 0 114 -26 265 -54 320 -26 49 -53 68 -81 55 -13
-6 -27 -20 -31 -31 -12 -39 -22 -21 -27 49 -4 56 -14 87 -44 148 -46 90 -77
115 -118 92 -15 -7 -29 -24 -32 -37 -10 -39 -21 -26 -27 35 -18 175 -94 334
-168 352 -15 4 -28 23 -43 66 -38 104 -93 174 -137 174 -10 0 -30 -11 -45 -24
l-28 -23 -12 -269 c-6 -148 -15 -287 -18 -309 -4 -22 -12 -69 -18 -105 -43
-265 -169 -563 -354 -837 -59 -87 -126 -181 -150 -209 -118 -138 -207 -302
-283 -521 -48 -139 -106 -258 -137 -284 -33 -28 -104 -16 -198 31 -49 25 -91
50 -93 56 -2 7 14 14 37 18 81 13 165 130 207 286 25 97 23 310 -5 467 -24
133 -26 111 21 314 9 39 7 52 -9 85 -31 64 -57 66 -168 11 -158 -79 -330 -200
-443 -313 l-101 -101 -59 27 c-72 35 -183 60 -261 60 -32 0 -66 6 -75 13 -9 6
-35 52 -57 102 -21 49 -44 91 -49 93 -13 4 -34 -38 -57 -113 -10 -33 -20 -63
-24 -67 -3 -5 -64 -9 -135 -11 -135 -4 -225 -21 -297 -58 l-38 -20 -58 62
c-101 110 -293 248 -458 329 -102 51 -147 55 -181 15 -29 -33 -29 -59 2 -170
29 -104 30 -162 10 -330 -8 -66 -15 -167 -15 -225 l0 -105 -51 95 c-68 126
-85 148 -269 335 -87 88 -186 198 -220 245 -145 196 -217 433 -290 960 -64
466 -71 493 -125 518 -30 14 -33 14 -61 1z m64 -94 c20 -43 40 -158 83 -460
47 -335 75 -478 125 -625 75 -218 153 -340 348 -540 216 -221 313 -357 386
-540 10 -25 52 -116 94 -203 42 -86 76 -160 76 -162 0 -3 9 -15 20 -27 l20
-22 -42 -75 c-56 -103 -200 -322 -226 -345 -43 -37 -171 -5 -255 65 -21 17
-36 33 -34 35 2 3 30 -11 62 -30 63 -39 149 -61 195 -51 43 9 50 28 8 20 -70
-13 -240 65 -309 141 -30 34 -73 103 -67 109 2 2 23 -11 47 -30 46 -37 148
-91 156 -83 3 3 -23 23 -58 46 -81 52 -150 127 -181 194 -44 98 -57 130 -52
135 2 2 31 -17 65 -44 69 -55 141 -98 141 -84 0 5 -9 13 -20 16 -35 11 -213
196 -243 253 -16 28 -25 52 -22 52 4 0 43 -26 88 -57 93 -65 85 -46 -21 52
-40 37 -80 81 -88 96 -19 37 -74 193 -69 197 1 2 42 -27 89 -63 47 -37 86 -63
86 -59 0 3 -10 15 -22 26 -72 62 -161 153 -182 185 -13 21 -36 79 -51 128 -14
50 -39 133 -55 185 -114 370 -176 863 -168 1335 3 219 10 255 47 255 10 0 23
-11 29 -25z m4555 -48 c64 -123 89 -346 68 -612 -27 -333 -97 -610 -287 -1137
-97 -269 -108 -293 -185 -395 -39 -52 -69 -97 -66 -99 3 -3 30 23 62 58 85 94
61 27 -33 -91 -22 -28 -23 -32 -7 -23 11 6 29 24 40 41 30 47 37 37 15 -20
-22 -54 -60 -115 -119 -189 l-36 -45 30 19 c37 24 46 34 69 69 27 40 37 33 21
-13 -19 -53 -73 -134 -130 -194 -25 -27 -45 -50 -45 -52 0 -17 36 4 81 46 29
27 54 48 56 46 12 -12 -31 -78 -78 -119 -62 -55 -52 -63 15 -12 25 19 46 34
46 32 -1 -9 -30 -97 -41 -120 -7 -15 -39 -47 -72 -72 -46 -34 -71 -45 -113
-51 -63 -7 -66 -6 -204 125 l-85 80 38 1 c49 0 47 13 -5 27 -31 9 -60 29 -103
73 -58 59 -59 62 -40 75 66 46 111 129 192 351 75 204 158 356 284 518 199
256 307 439 389 661 97 260 131 432 154 787 10 155 19 224 30 246 19 37 35 34
59 -11z m193 -269 c62 -122 89 -367 60 -546 -49 -303 -106 -445 -298 -738 -26
-39 -56 -91 -67 -115 -81 -177 -98 -198 -49 -59 47 133 58 161 71 192 37 83
99 298 141 483 23 104 37 193 55 365 8 73 8 73 10 20 1 -58 -22 -269 -39 -359
-11 -60 -12 -66 -6 -60 6 5 40 174 58 284 8 51 13 174 13 342 0 285 1 289 51
191z m-4883 -220 c18 -247 42 -431 83 -643 39 -199 184 -739 205 -759 5 -6 9
-19 9 -31 0 -12 4 -25 9 -31 6 -5 12 -21 15 -36 2 -14 9 -35 15 -46 25 -46 8
-44 -41 6 -28 29 -54 50 -56 47 -7 -7 89 -105 103 -105 10 0 65 -119 65 -141
0 -11 30 -86 70 -174 10 -22 33 -78 50 -125 51 -133 96 -233 129 -285 23 -35
26 -49 9 -42 -7 2 -24 7 -38 11 -24 6 -23 6 3 -9 16 -9 34 -14 40 -12 7 2 35
-17 63 -43 59 -56 141 -100 184 -100 16 0 30 -2 30 -5 0 -3 -21 -31 -47 -63
-68 -83 -97 -153 -98 -232 0 -45 -8 -83 -24 -123 -22 -53 -28 -60 -80 -84
-104 -50 -240 -33 -270 34 -27 60 38 182 120 224 52 26 50 40 -3 22 -63 -22
-210 -14 -265 15 -47 24 -83 65 -83 94 0 11 15 35 33 52 25 25 47 35 97 45 74
14 188 47 210 61 30 19 1 18 -75 -2 -118 -30 -207 -29 -270 4 -82 42 -175 152
-150 176 4 4 85 7 181 7 95 -1 170 2 166 5 -4 3 -34 17 -67 29 -115 45 -260
118 -310 156 -27 20 -67 59 -88 85 -27 34 -46 48 -63 48 -14 0 -77 26 -142 57
-104 52 -127 68 -208 149 -78 78 -98 105 -137 186 -26 54 -52 128 -61 172 -16
75 -22 198 -10 198 3 0 78 -73 167 -161 336 -336 492 -448 797 -574 76 -31
203 -94 210 -103 3 -4 14 -14 24 -22 18 -14 18 -14 6 5 -26 42 -106 94 -238
156 -267 125 -388 200 -549 346 -248 224 -332 424 -293 696 18 126 23 125 98
-25 78 -154 120 -219 249 -380 135 -169 319 -334 446 -400 44 -22 59 -19 25 5
-128 91 -198 149 -279 233 -131 134 -146 152 -229 283 -129 203 -160 298 -159
481 1 115 9 168 24 160 5 -3 56 -102 112 -220 109 -225 182 -351 269 -460 61
-76 82 -100 109 -120 18 -13 19 -13 9 0 -158 210 -185 253 -258 398 -70 141
-104 245 -117 362 -22 189 32 455 81 404 4 -5 17 -63 29 -129 35 -212 106
-426 193 -585 40 -74 109 -173 115 -166 2 2 -26 59 -61 127 -101 194 -158 380
-192 624 -19 140 -14 251 17 366 20 74 51 139 67 139 4 0 15 -105 25 -232z
m5109 -84 c49 -72 62 -137 55 -286 -9 -220 -67 -378 -250 -682 -123 -205 -167
-268 -275 -398 -132 -160 -154 -189 -149 -195 6 -6 22 11 122 122 76 85 201
245 248 317 251 386 275 437 372 788 30 110 47 135 69 105 21 -28 44 -118 56
-212 16 -124 -19 -293 -90 -432 -66 -131 -268 -372 -379 -453 -31 -23 -58 -43
-60 -45 -2 -1 -2 -5 1 -8 3 -3 22 6 43 20 20 14 39 24 41 22 5 -5 -62 -116
-110 -181 -52 -68 -205 -228 -267 -277 -59 -47 -240 -161 -246 -155 -3 3 4 33
16 68 11 35 41 137 66 227 52 190 100 326 127 360 10 14 27 43 38 65 10 23 36
64 56 91 37 49 37 49 6 21 -18 -17 -32 -25 -32 -20 0 6 52 89 116 185 191 289
262 458 315 752 17 95 37 180 55 235 6 21 27 9 56 -34z m367 -661 c21 -80 33
-191 27 -258 -12 -152 -55 -229 -229 -410 -119 -125 -224 -217 -332 -288 -38
-26 -66 -47 -62 -47 24 0 182 90 241 138 97 78 281 262 351 351 67 86 131 192
140 233 8 34 26 32 36 -3 24 -83 -4 -271 -58 -393 -63 -143 -208 -315 -339
-404 -64 -43 -204 -115 -211 -108 -2 2 -5 40 -6 85 -2 61 -6 85 -19 98 -10 9
-19 15 -21 12 -2 -2 -25 -39 -51 -82 -88 -143 -286 -317 -458 -404 -27 -14
-47 -27 -44 -30 5 -6 144 63 211 105 127 78 241 185 310 290 15 23 30 42 33
42 12 0 -10 -145 -33 -217 -74 -234 -234 -368 -508 -424 -56 -11 -103 -22
-106 -24 -11 -12 55 -15 110 -5 184 32 294 85 399 190 79 80 120 152 155 273
10 36 23 60 33 63 9 3 46 19 82 36 208 97 420 300 509 488 35 73 44 65 44 -34
1 -177 -98 -379 -268 -552 -69 -69 -188 -160 -255 -194 -64 -33 -31 -37 38 -5
134 63 275 181 370 310 53 72 77 118 109 205 l24 65 -6 -91 c-7 -139 -86 -385
-156 -490 -57 -84 -169 -178 -281 -235 -90 -46 -338 -102 -346 -79 -5 15 -42
12 -42 -3 0 -8 -21 -37 -47 -66 -37 -39 -62 -56 -106 -72 -105 -36 -340 -47
-517 -24 -19 3 -3 -4 35 -15 39 -11 115 -23 170 -26 111 -7 137 -17 202 -77
49 -45 73 -84 73 -118 0 -32 -38 -94 -70 -112 -61 -36 -214 -12 -313 50 -58
35 -76 52 -188 180 -106 119 -269 283 -282 283 -5 0 20 -34 55 -77 35 -42 94
-115 131 -162 38 -47 87 -106 110 -129 97 -101 269 -192 379 -200 81 -6 107 0
146 33 l30 25 144 -36 c182 -45 270 -52 371 -30 42 10 79 21 82 27 4 5 13 9
21 9 45 0 -84 -138 -164 -176 -51 -24 -64 -26 -142 -22 -78 5 -82 4 -53 -8 18
-8 62 -19 98 -26 36 -7 65 -18 65 -24 0 -22 -44 -67 -84 -85 -47 -21 -139 -25
-201 -8 -99 27 -344 141 -405 188 -56 44 -69 46 -24 4 46 -42 136 -95 258
-150 70 -31 149 -76 166 -93 3 -3 29 -21 57 -40 29 -19 53 -39 53 -45 0 -19
-68 -54 -128 -65 -54 -11 -68 -10 -130 9 -79 24 -160 79 -240 164 -29 32 -55
57 -58 57 -2 0 2 -13 10 -28 20 -38 158 -168 231 -217 33 -22 69 -48 80 -59
11 -10 30 -25 42 -33 18 -12 21 -19 12 -35 -39 -73 -179 -77 -299 -8 -71 41
-89 44 -45 6 22 -20 75 -52 118 -73 42 -21 77 -40 77 -43 0 -18 -45 -50 -90
-65 -87 -29 -152 -4 -170 66 -6 23 -9 43 -7 45 2 2 21 -9 42 -26 21 -16 43
-30 48 -30 6 0 -12 17 -40 37 -49 37 -51 40 -63 108 -7 38 -14 86 -16 105 -9
115 -81 329 -130 384 -19 22 -34 37 -34 33 0 -3 14 -40 31 -82 42 -106 77
-266 89 -415 6 -69 17 -154 25 -190 33 -144 45 -230 50 -330 l4 -105 -14 100
c-36 252 -72 441 -74 394 -1 -9 6 -60 14 -115 9 -54 20 -134 26 -178 5 -43 19
-124 31 -180 16 -78 21 -138 21 -266 0 -307 -46 -508 -191 -830 -67 -147 -181
-301 -363 -485 -136 -138 -152 -158 -189 -238 -42 -90 -83 -235 -95 -339 -8
-61 -18 -68 -28 -18 -12 57 -77 64 -135 15 -26 -22 -39 -25 -106 -25 -42 0
-76 3 -76 8 -1 4 -2 77 -4 162 -1 85 -8 175 -15 200 -14 49 -46 90 -70 90 -32
0 6 18 87 40 141 40 76 44 -89 6 -217 -50 -330 -67 -514 -73 -138 -5 -176 -3
-275 16 -258 49 -423 130 -597 295 -24 22 -45 37 -48 34 -9 -9 133 -136 197
-175 67 -41 70 -55 6 -24 -81 39 -107 56 -111 74 -3 9 -13 17 -22 17 -9 0 -30
9 -46 21 -48 34 -33 4 25 -49 49 -44 139 -104 189 -124 22 -9 22 -17 0 -12
-10 2 -31 0 -48 -5 -29 -9 -29 -9 15 -12 25 -1 53 -3 63 -2 21 0 22 -10 2 -27
-9 -7 -14 -19 -11 -27 3 -7 -1 -39 -9 -70 -10 -38 -15 -106 -15 -201 0 -109
-4 -150 -15 -172 -9 -17 -18 -30 -21 -30 -7 0 -70 32 -146 74 -37 21 -83 38
-105 39 l-38 3 -21 85 c-44 170 -126 368 -175 420 -90 96 -232 275 -281 355
-101 163 -135 243 -187 439 l-10 40 5 -50 c9 -79 32 -152 89 -271 77 -164 176
-309 324 -473 34 -39 59 -71 53 -71 -14 0 -145 146 -217 243 -192 256 -289
485 -335 788 -25 170 -9 643 21 612 4 -4 4 -28 -1 -53 -11 -60 -16 -207 -7
-216 4 -4 7 22 7 58 0 36 3 92 6 126 l7 61 53 -54 c100 -101 217 -160 301
-153 l38 3 -30 14 c-157 69 -228 120 -303 221 -96 128 -152 346 -152 593 0
152 19 269 64 385 18 48 37 96 41 107 19 52 -62 -89 -86 -150 -32 -82 -54 -99
-35 -28 17 62 65 178 122 289 54 108 20 74 -51 -51 -52 -90 -51 -77 5 95 41
127 99 248 167 352 24 37 46 75 50 85 13 34 -57 -28 -104 -91 -28 -38 -42 -52
-38 -36 12 44 68 130 139 213 38 45 96 122 128 172 56 86 70 97 48 39 -22 -56
-42 -248 -36 -336 19 -264 139 -495 341 -661 86 -70 345 -208 402 -213 18 -2
40 -7 50 -12 24 -13 165 -52 228 -64 82 -16 311 -21 384 -8 63 11 198 50 365
105 348 115 657 598 606 947 -6 46 -23 118 -37 162 -21 66 -112 303 -143 371
-5 11 -16 38 -26 60 -10 22 -19 43 -21 46 -1 4 42 -20 97 -53 107 -64 173
-125 267 -249 31 -41 109 -128 173 -194 129 -132 150 -155 265 -298 77 -97
129 -145 139 -129 2 4 -4 19 -15 32 -11 14 -38 52 -61 85 -23 33 -59 81 -80
106 -42 51 -45 59 -24 59 8 0 27 5 43 11 15 6 73 11 128 11 86 -1 95 1 60 9
-22 6 -66 9 -98 7 -31 -3 -56 -2 -54 1 11 21 99 212 101 221 1 3 7 25 13 50
22 84 47 195 48 210 0 8 5 15 10 15 10 0 160 88 217 128 101 70 133 97 214
180 57 58 104 118 128 162 61 110 122 191 234 310 119 125 208 255 302 438 36
70 68 127 72 127 4 0 12 -17 17 -37z m-4245 -12 c122 -59 270 -145 347 -202
66 -49 155 -141 191 -198 18 -29 77 -79 116 -100 34 -18 29 9 -13 63 -40 53
-41 56 -17 56 24 0 89 -36 142 -79 80 -65 86 -66 26 -4 -32 34 -74 69 -92 79
-19 10 -34 22 -34 25 0 14 129 30 277 36 146 6 152 7 142 25 -10 19 7 128 20
128 7 0 61 -130 61 -146 0 -6 53 -15 118 -22 116 -11 230 -39 265 -66 18 -14
16 -18 -33 -81 -81 -104 -53 -99 51 11 229 241 276 281 469 396 112 67 205
109 224 102 27 -10 29 -46 7 -131 -25 -98 -26 -178 -5 -298 23 -122 23 -311 1
-395 -24 -91 -81 -203 -122 -239 -49 -42 -106 -57 -147 -36 -17 8 -33 13 -35
11 -2 -2 5 -23 16 -47 25 -55 204 -508 224 -569 49 -145 48 -294 -1 -427 -76
-203 -184 -363 -332 -490 -94 -81 -154 -116 -305 -180 -164 -69 -208 -81 -327
-94 -226 -24 -392 14 -669 153 -386 193 -598 478 -616 830 -4 65 -1 138 7 185
19 122 81 291 156 426 91 165 140 258 149 288 6 21 3 20 -32 -14 -69 -66 -161
-60 -237 16 -82 82 -108 242 -81 487 29 261 30 355 6 443 -12 43 -21 82 -21
87 0 17 20 11 104 -29z m-1925 -888 c118 -138 313 -273 482 -334 55 -20 90
-38 94 -49 3 -9 30 -42 60 -73 32 -33 49 -57 42 -60 -6 -2 -5 -3 4 -2 9 1 33
-6 55 -17 21 -11 75 -34 120 -51 l80 -32 -160 1 c-188 2 -245 13 -382 78 -208
99 -331 219 -412 404 -42 95 -78 244 -53 217 5 -6 36 -42 70 -82z m1961 -204
c36 -14 65 -18 87 -14 18 3 33 4 33 1 0 -10 -73 -126 -79 -126 -3 0 -15 15
-26 33 -53 88 -75 127 -73 127 2 0 28 -9 58 -21z m-1856 -209 c201 -132 315
-185 477 -222 l102 -23 17 -41 c22 -50 70 -106 116 -134 19 -12 34 -25 34 -29
0 -11 -204 -4 -305 10 -232 31 -415 161 -509 361 -47 98 -62 148 -47 148 5 0
57 -31 115 -70z m6166 -314 c0 -28 -38 -136 -63 -179 -63 -107 -229 -213 -398
-255 -47 -12 -134 -26 -195 -32 -60 -5 -116 -11 -124 -12 -8 0 8 -4 35 -7 70
-8 251 13 370 43 136 34 233 44 240 24 19 -48 -121 -213 -222 -263 -85 -42
-206 -46 -366 -11 -65 14 -129 26 -143 26 -28 0 -29 5 -9 55 9 20 15 46 13 58
-3 19 3 23 47 28 51 6 47 7 -35 14 -9 0 -35 22 -59 48 -25 26 -57 55 -73 65
-15 9 -28 19 -28 23 0 3 30 9 68 12 81 7 149 32 193 72 28 24 46 31 102 37
101 10 290 65 392 113 50 23 124 67 165 98 79 60 90 65 90 43z m-1450 -63
c-18 -56 -58 -110 -90 -122 -26 -8 -32 -6 -64 29 -20 22 -36 41 -36 44 0 2 24
12 53 20 28 9 72 29 97 45 24 17 46 28 48 26 2 -2 -1 -21 -8 -42z m-2512
-4106 c18 -57 26 -117 15 -117 -5 0 -16 30 -23 66 -8 37 -21 73 -29 81 -13 13
-12 15 5 11 12 -2 24 -18 32 -41z m1781 17 c-8 -10 -19 -29 -26 -43 -11 -26
-11 -26 -12 -3 -1 32 16 62 36 62 13 0 14 -2 2 -16z m-1707 -44 c-6 -41 -12
-38 -12 6 0 19 4 33 8 30 5 -3 7 -19 4 -36z m1732 15 c3 -8 1 -15 -4 -15 -6 0
-10 7 -10 15 0 8 2 15 4 15 2 0 6 -7 10 -15z m-1673 -22 c45 -27 48 -56 9 -81
-18 -11 -22 -9 -30 14 -6 15 -8 35 -5 45 4 11 2 19 -4 19 -6 0 -11 5 -11 10 0
14 8 13 41 -7z m1450 -20 c36 -59 56 -76 56 -48 0 8 -5 15 -12 15 -10 0 -45
50 -45 64 0 3 21 6 46 6 43 0 45 -1 38 -22 -4 -13 -10 -38 -15 -56 -9 -43 -13
-46 -38 -32 -28 14 -77 110 -57 110 2 0 15 -17 27 -37z m218 -39 c-20 -38 -31
-28 -11 10 9 19 19 30 21 24 2 -5 -2 -21 -10 -34z m-1825 10 c3 -8 2 -12 -4
-9 -6 3 -10 10 -10 16 0 14 7 11 14 -7z m1773 -21 c-3 -10 -5 -4 -5 12 0 17 2
24 5 18 2 -7 2 -21 0 -30z"/>
<path d="M3470 6511 c0 -6 4 -13 10 -16 6 -3 7 1 4 9 -7 18 -14 21 -14 7z"/>
<path d="M3450 6343 c0 -15 82 -122 121 -158 38 -34 26 -15 -41 65 -26 30 -54
66 -63 80 -9 13 -17 19 -17 13z"/>
<path d="M3648 6102 c13 -17 28 -35 34 -39 7 -3 2 8 -10 25 -13 17 -28 35 -34
39 -7 3 -2 -8 10 -25z"/>
<path d="M4170 5915 c85 -180 123 -255 128 -250 2 2 -12 37 -31 77 -19 40 -58
120 -85 178 -28 58 -57 114 -66 125 -9 11 16 -47 54 -130z"/>
<path d="M3570 5966 c0 -3 9 -10 20 -16 11 -6 20 -8 20 -6 0 3 -9 10 -20 16
-11 6 -20 8 -20 6z"/>
<path d="M4341 5580 c12 -22 24 -38 26 -36 4 4 -37 76 -44 76 -2 0 6 -18 18
-40z"/>
<path d="M4261 5600 c0 -8 6 -24 14 -34 19 -25 19 -9 0 24 -8 14 -14 19 -14
10z"/>
<path d="M4300 5520 c0 -15 42 -78 79 -120 46 -53 37 -28 -14 38 -25 31 -45
62 -45 69 0 6 -4 15 -10 18 -5 3 -10 1 -10 -5z"/>
<path d="M4360 5481 c0 -5 7 -15 17 -22 15 -13 15 -12 4 9 -12 23 -21 28 -21
13z"/>
<path d="M3795 5400 c10 -11 20 -20 23 -20 3 0 -3 9 -13 20 -10 11 -20 20 -23
20 -3 0 3 -9 13 -20z"/>
<path d="M4225 5121 c-6 -5 -19 -11 -30 -14 -16 -4 -14 -5 6 -6 15 0 32 6 39
14 13 16 0 21 -15 6z"/>
<path d="M7522 6635 c-17 -37 -14 -45 4 -12 9 16 14 31 11 33 -2 2 -9 -7 -15
-21z"/>
<path d="M7486 6575 c-9 -26 -7 -32 5 -12 6 10 9 21 6 23 -2 3 -7 -2 -11 -11z"/>
<path d="M7580 6260 c-6 -11 -8 -20 -6 -20 3 0 10 9 16 20 6 11 8 20 6 20 -3
0 -10 -9 -16 -20z"/>
<path d="M6805 5393 c-30 -7 -43 -23 -18 -23 11 0 26 7 33 15 7 8 11 14 9 14
-2 -1 -13 -3 -24 -6z"/>
<path d="M7212 5108 c-18 -11 -31 -23 -28 -25 2 -3 22 7 43 21 44 31 33 34
-15 4z"/>
<path d="M7881 6694 c0 -11 3 -14 6 -6 3 7 2 16 -1 19 -3 4 -6 -2 -5 -13z"/>
<path d="M3295 6120 c3 -5 8 -10 11 -10 2 0 4 5 4 10 0 6 -5 10 -11 10 -5 0
-7 -4 -4 -10z"/>
<path d="M3370 6128 c0 -2 9 -11 20 -21 11 -9 20 -13 20 -7 0 5 -9 14 -20 20
-11 6 -20 9 -20 8z"/>
<path d="M3418 6024 c17 -22 39 -47 48 -55 34 -27 -2 24 -42 61 l-38 35 32
-41z"/>
<path d="M2615 6010 c10 -11 20 -20 23 -20 3 0 -3 9 -13 20 -10 11 -20 20 -23
20 -3 0 3 -9 13 -20z"/>
<path d="M3111 5927 c2 -1 15 -11 29 -22 l25 -20 -19 23 c-11 12 -24 22 -29
22 -6 0 -8 -1 -6 -3z"/>
<path d="M3310 5780 c35 -24 54 -31 30 -11 -14 11 -29 21 -35 21 -5 0 -3 -5 5
-10z"/>
<path d="M3380 5735 c0 -2 15 -12 33 -20 l32 -16 -25 20 c-24 20 -40 26 -40
16z"/>
<path d="M3450 5696 c0 -2 21 -18 48 -35 26 -17 57 -38 70 -47 12 -9 22 -13
22 -8 0 5 -17 20 -38 33 -20 13 -49 32 -64 43 -27 18 -38 22 -38 14z"/>
<path d="M3560 5681 c0 -5 5 -13 10 -16 6 -3 10 -2 10 4 0 5 -4 13 -10 16 -5
3 -10 2 -10 -4z"/>
<path d="M3150 5555 c0 -5 56 -35 65 -35 3 0 4 4 1 9 -6 10 -66 33 -66 26z"/>
<path d="M3230 5516 c0 -2 7 -7 16 -10 8 -3 12 -2 9 4 -6 10 -25 14 -25 6z"/>
<path d="M3185 5400 c17 -11 35 -20 40 -20 6 0 -5 9 -23 20 -42 26 -56 26 -17
0z"/>
<path d="M3608 5243 c7 -3 16 -2 19 1 4 3 -2 6 -13 5 -11 0 -14 -3 -6 -6z"/>
<path d="M3648 5233 c7 -3 16 -2 19 1 4 3 -2 6 -13 5 -11 0 -14 -3 -6 -6z"/>
<path d="M3745 5210 c3 -5 14 -10 23 -10 15 0 15 2 2 10 -20 13 -33 13 -25 0z"/>
<path d="M7665 5939 c-4 -6 -5 -12 -2 -15 2 -3 7 2 10 11 7 17 1 20 -8 4z"/>
<path d="M7616 5894 c-5 -14 -4 -15 9 -4 17 14 19 20 6 20 -5 0 -12 -7 -15
-16z"/>
<path d="M7575 5749 c-11 -17 1 -21 15 -4 8 9 8 15 2 15 -6 0 -14 -5 -17 -11z"/>
<path d="M8615 6660 c-4 -23 -5 -44 -2 -46 3 -3 8 13 12 36 4 23 5 44 2 46 -3
3 -8 -13 -12 -36z"/>
<path d="M8600 6583 c0 -10 -11 -49 -25 -87 -29 -83 -27 -100 3 -22 23 60 38
126 28 126 -3 0 -6 -8 -6 -17z"/>
<path d="M8647 6173 c-4 -3 -7 -11 -7 -17 0 -6 5 -5 12 2 6 6 9 14 7 17 -3 3
-9 2 -12 -2z"/>
<path d="M8100 5897 c-59 -54 -68 -74 -13 -27 29 25 53 48 53 53 0 11 -2 9
-40 -26z"/>
<path d="M7664 5501 c-39 -27 -80 -52 -91 -55 -21 -7 -91 -56 -80 -56 22 0
257 142 257 155 0 12 -20 2 -86 -44z"/>
<path d="M8200 5400 c-9 -6 -10 -10 -3 -10 6 0 15 5 18 10 8 12 4 12 -15 0z"/>
<path d="M8449 5373 c-13 -17 -13 -17 6 -3 11 8 22 16 24 17 2 2 0 3 -6 3 -6
0 -17 -8 -24 -17z"/>
<path d="M8370 5330 c-12 -8 -11 -10 8 -10 12 0 22 5 22 10 0 13 -11 13 -30 0z"/>
<path d="M6679 5316 c8 -9 24 -22 35 -28 19 -10 20 -10 7 6 -8 9 -24 22 -35
28 -19 10 -20 10 -7 -6z"/>
<path d="M8267 5294 c-3 -3 -36 -14 -74 -24 -37 -10 -59 -18 -48 -19 27 0 105
21 130 36 11 7 15 13 9 13 -6 0 -13 -3 -17 -6z"/>
<path d="M7470 5168 c-60 -23 -66 -26 -59 -33 3 -2 39 9 80 25 41 16 65 29 54
29 -11 0 -45 -9 -75 -21z"/>
<path d="M7810 5130 c-9 -6 -10 -10 -3 -10 6 0 15 5 18 10 8 12 4 12 -15 0z"/>
<path d="M7764 5105 c-10 -8 -14 -14 -9 -15 15 0 40 18 34 24 -3 3 -14 -1 -25
-9z"/>
<path d="M7685 5071 c-22 -11 -33 -20 -25 -20 8 0 31 8 50 19 45 25 27 25 -25
1z"/>
<path d="M7958 5063 c7 -3 16 -2 19 1 4 3 -2 6 -13 5 -11 0 -14 -3 -6 -6z"/>
<path d="M7770 4970 c-12 -8 -9 -10 13 -10 16 0 26 4 22 10 -8 12 -16 12 -35
0z"/>
<path d="M7853 4973 c9 -2 23 -2 30 0 6 3 -1 5 -18 5 -16 0 -22 -2 -12 -5z"/>
<path d="M7273 4823 c9 -2 25 -2 35 0 9 3 1 5 -18 5 -19 0 -27 -2 -17 -5z"/>
<path d="M7305 4770 c3 -5 10 -10 16 -10 5 0 9 5 9 10 0 6 -7 10 -16 10 -8 0
-12 -4 -9 -10z"/>
<path d="M7163 4647 c34 -45 89 -145 156 -283 47 -97 141 -392 156 -491 7 -47
18 -54 35 -23 13 25 5 60 -92 385 -12 39 -39 108 -60 154 -21 46 -38 86 -38
88 0 3 7 2 17 -1 9 -4 -11 22 -46 57 -34 35 -68 73 -76 84 -9 12 -30 32 -48
45 l-32 22 28 -37z"/>
<path d="M7605 4641 c11 -5 36 -11 55 -15 l35 -6 -35 14 c-19 8 -44 15 -55 15
l-20 0 20 -8z"/>
<path d="M7748 4603 c7 -3 16 -2 19 1 4 3 -2 6 -13 5 -11 0 -14 -3 -6 -6z"/>
<path d="M4300 4566 c0 -33 63 -169 111 -240 59 -87 144 -178 224 -238 33 -26
77 -61 97 -80 20 -18 42 -34 50 -36 7 -2 18 -9 25 -15 10 -9 1 -12 -39 -14
-125 -5 -241 -47 -297 -107 -19 -20 -32 -36 -29 -36 4 0 38 15 75 34 115 57
204 68 335 41 149 -31 281 -120 387 -264 57 -76 61 -91 29 -91 -13 0 -32 -3
-43 -6 -15 -4 -33 7 -69 43 l-47 48 40 -75 c44 -83 107 -257 97 -267 -12 -12
-66 -6 -121 12 -72 25 -156 91 -202 161 -41 62 -56 57 -24 -8 11 -23 19 -44
17 -46 -7 -6 -61 26 -82 50 -12 12 -30 39 -40 58 -13 25 -19 30 -22 18 -5 -24
24 -77 65 -119 l35 -37 -37 0 c-20 0 -39 -3 -43 -7 -4 -4 19 -5 51 -2 60 6 72
-2 35 -22 -59 -31 -72 -41 -57 -41 9 0 19 3 23 7 9 9 79 33 84 28 11 -11 -88
-115 -174 -183 -33 -25 -114 -52 -189 -61 -120 -15 -245 31 -338 125 -38 39
-54 50 -50 35 8 -29 108 -120 174 -156 49 -27 62 -30 149 -30 52 0 111 4 130
9 52 12 26 -7 -45 -33 -120 -45 -253 -39 -353 17 -41 23 -132 103 -132 116 0
3 -14 27 -31 53 -36 55 -30 21 8 -44 72 -124 194 -202 330 -211 81 -5 133 6
233 50 128 57 241 141 292 217 17 25 32 48 34 50 1 1 20 -11 42 -28 96 -78
262 -96 279 -31 6 24 3 24 42 4 40 -20 86 -11 107 21 14 21 14 30 0 87 -18 72
-86 218 -141 304 -53 83 -140 170 -220 222 -38 24 -71 49 -73 53 -2 5 -8 9
-13 9 -15 0 -178 79 -224 109 -229 148 -351 287 -430 486 -31 78 -35 86 -35
61z m1042 -1137 c32 -63 59 -142 54 -156 -8 -21 -44 -15 -66 10 -17 19 -90
160 -90 172 0 4 60 12 75 10 6 -1 18 -17 27 -36z m-195 -204 c18 -4 35 -11 39
-16 14 -23 -96 14 -148 50 -58 40 -45 44 20 6 31 -18 72 -36 89 -40z"/>
<path d="M5331 3382 c6 -18 15 -35 20 -38 5 -3 4 7 -3 23 -17 41 -30 53 -17
15z"/>
<path d="M5300 3381 c0 -6 4 -13 10 -16 6 -3 7 1 4 9 -7 18 -14 21 -14 7z"/>
<path d="M7180 4445 c0 -5 9 -23 20 -40 26 -39 26 -25 0 17 -11 18 -20 29 -20
23z"/>
<path d="M7410 4375 c43 -44 50 -50 50 -41 0 7 -80 86 -87 86 -4 0 13 -20 37
-45z"/>
<path d="M7260 4390 c0 -10 86 -179 97 -190 7 -8 -12 40 -50 123 -34 72 -47
91 -47 67z"/>
<path d="M8000 4230 c8 -5 20 -10 25 -10 6 0 3 5 -5 10 -8 5 -19 10 -25 10 -5
0 -3 -5 5 -10z"/>
<path d="M8045 4210 c3 -5 11 -10 16 -10 6 0 7 5 4 10 -3 6 -11 10 -16 10 -6
0 -7 -4 -4 -10z"/>
<path d="M7300 4151 c0 -6 4 -13 10 -16 6 -3 7 1 4 9 -7 18 -14 21 -14 7z"/>
<path d="M7490 4144 c0 -6 7 -19 16 -30 14 -18 14 -18 3 6 -14 31 -19 36 -19
24z"/>
<path d="M7324 4070 c51 -261 56 -350 26 -491 -29 -136 -52 -197 -136 -355
-41 -78 -74 -145 -74 -148 0 -17 72 74 115 145 61 102 102 223 117 348 7 55
16 101 20 101 13 0 9 56 -12 190 -20 128 -43 227 -56 239 -4 3 -4 -10 0 -29z"/>
<path d="M4471 4070 c16 -25 97 -74 139 -84 18 -5 14 0 -14 16 -21 13 -61 38
-90 57 -44 30 -49 32 -35 11z"/>
<path d="M6262 3998 c-51 -40 -165 -86 -431 -174 -110 -37 -256 -50 -389 -36
-105 12 -164 28 -346 97 -38 14 -71 23 -74 20 -3 -3 -3 -6 -1 -7 22 -14 146
-71 189 -88 39 -15 70 -37 107 -78 29 -31 53 -51 53 -45 0 7 -19 33 -43 58
-24 25 -41 45 -38 45 3 0 55 -7 115 -15 203 -26 383 -2 576 79 30 13 98 40
150 60 62 24 114 53 148 82 68 56 55 58 -16 2z"/>
<path d="M6289 3973 c-13 -16 -12 -17 4 -4 16 13 21 21 13 21 -2 0 -10 -8 -17
-17z"/>
<path d="M4640 3969 c0 -5 9 -9 20 -9 11 0 20 2 20 4 0 2 -9 6 -20 9 -11 3
-20 1 -20 -4z"/>
<path d="M6413 3936 c-39 -8 -75 -16 -80 -19 -5 -3 -55 -11 -111 -16 -148 -16
-241 -54 -329 -135 -186 -174 -307 -526 -180 -526 23 0 25 -3 20 -39 -5 -36
-3 -41 28 -57 25 -14 56 -19 119 -19 73 0 93 4 140 27 30 15 73 43 94 63 22
19 42 35 46 35 3 0 28 -23 55 -51 106 -108 245 -188 364 -210 60 -10 80 -9
169 9 56 12 114 28 129 37 l28 16 -30 -6 c-16 -3 -66 -12 -110 -21 -99 -20
-180 -8 -282 40 -71 34 -223 148 -223 167 0 10 18 -1 99 -63 13 -10 31 -18 39
-18 9 0 -13 20 -49 44 -116 80 -149 108 -149 127 0 11 4 19 9 19 10 0 21 31
27 75 l4 30 -17 -22 c-10 -12 -29 -41 -43 -65 -43 -74 -129 -152 -193 -176
-67 -26 -163 -29 -193 -8 -25 19 -12 31 16 16 32 -17 147 -8 194 15 80 39 186
178 186 244 0 36 -14 23 -45 -42 -62 -129 -141 -182 -267 -181 -37 0 -70 3
-73 6 -3 3 7 26 22 51 16 24 37 71 47 103 11 33 25 76 32 96 15 42 6 55 -26
38 -27 -14 -113 -40 -118 -36 -2 2 7 24 19 48 93 183 240 304 384 315 33 3 67
7 75 10 53 20 238 52 305 52 84 1 186 -19 235 -44 40 -21 38 -5 -3 21 -90 58
-225 76 -364 50z m-558 -488 c-15 -48 -70 -141 -93 -156 -21 -14 -25 -14 -39
1 -12 11 -14 26 -9 60 8 49 27 71 84 98 52 25 65 24 57 -3z"/>
<path d="M7590 3865 c18 -22 100 -78 106 -73 2 3 -24 24 -58 47 -34 23 -56 35
-48 26z"/>
<path d="M6250 3840 c0 -5 4 -10 9 -10 5 0 18 -3 28 -6 16 -6 16 -5 -2 9 -23
19 -35 21 -35 7z"/>
<path d="M7725 3770 c3 -5 11 -10 16 -10 6 0 7 5 4 10 -3 6 -11 10 -16 10 -6
0 -7 -4 -4 -10z"/>
<path d="M7490 3761 c0 -5 5 -13 10 -16 6 -3 10 -2 10 4 0 5 -4 13 -10 16 -5
3 -10 2 -10 -4z"/>
<path d="M7767 3749 c7 -7 15 -10 18 -7 3 3 -2 9 -12 12 -14 6 -15 5 -6 -5z"/>
<path d="M7858 3713 c7 -3 16 -2 19 1 4 3 -2 6 -13 5 -11 0 -14 -3 -6 -6z"/>
<path d="M7520 3655 c13 -14 26 -25 28 -25 3 0 -5 11 -18 25 -13 14 -26 25
-28 25 -3 0 5 -11 18 -25z"/>
<path d="M7577 3609 c7 -7 15 -10 18 -7 3 3 -2 9 -12 12 -14 6 -15 5 -6 -5z"/>
<path d="M7688 3567 c15 -7 26 -7 33 0 6 6 -1 10 -23 10 -30 0 -30 -1 -10 -10z"/>
<path d="M7643 3543 c9 -2 23 -2 30 0 6 3 -1 5 -18 5 -16 0 -22 -2 -12 -5z"/>
<path d="M7281 3504 c0 -11 3 -14 6 -6 3 7 2 16 -1 19 -3 4 -6 -2 -5 -13z"/>
<path d="M3971 3489 c0 -13 4 -33 9 -44 7 -14 8 -8 3 20 -7 46 -13 59 -12 24z"/>
<path d="M7236 3382 c-15 -43 -35 -85 -44 -95 -8 -9 -13 -20 -9 -23 8 -8 52
74 72 134 26 81 14 70 -19 -16z"/>
<path d="M4848 3264 c-16 -8 -28 -17 -28 -19 0 -11 19 -4 41 15 29 23 24 25
-13 4z"/>
<path d="M7160 3240 c0 -5 -37 -47 -82 -93 -96 -98 -170 -137 -307 -167 l-86
-18 60 -1 c113 -1 267 73 343 167 20 25 45 53 54 63 25 26 41 59 28 59 -5 0
-10 -4 -10 -10z"/>
<path d="M4685 3134 l-30 -15 30 6 c17 4 34 11 40 16 13 13 -5 10 -40 -7z"/>
<path d="M4603 3113 c9 -2 25 -2 35 0 9 3 1 5 -18 5 -19 0 -27 -2 -17 -5z"/>
<path d="M6250 3111 c0 -5 7 -12 16 -15 14 -5 15 -4 4 9 -14 17 -20 19 -20 6z"/>
<path d="M6924 3065 c-10 -8 -14 -15 -8 -15 6 0 17 7 24 15 16 19 9 19 -16 0z"/>
<path d="M7457 2799 c-5 -216 -26 -369 -67 -479 -11 -30 -20 -59 -19 -65 2
-27 49 122 68 213 34 161 53 487 32 521 -5 8 -11 -69 -14 -190z"/>
<path d="M3961 2764 c0 -11 3 -14 6 -6 3 7 2 16 -1 19 -3 4 -6 -2 -5 -13z"/>
<path d="M7281 2294 c0 -11 3 -14 6 -6 3 7 2 16 -1 19 -3 4 -6 -2 -5 -13z"/>
<path d="M7235 2199 c-4 -6 -5 -12 -2 -15 2 -3 7 2 10 11 7 17 1 20 -8 4z"/>
<path d="M7306 2105 c-9 -26 -7 -32 5 -12 6 10 9 21 6 23 -2 3 -7 -2 -11 -11z"/>
<path d="M7277 2041 c-4 -17 -3 -21 5 -13 5 5 8 16 6 23 -3 8 -7 3 -11 -10z"/>
<path d="M4251 1980 c14 -31 19 -36 19 -24 0 6 -7 19 -16 30 -14 18 -14 18 -3
-6z"/>
<path d="M7242 1970 c-18 -29 -15 -38 4 -12 9 13 14 25 12 27 -2 2 -9 -5 -16
-15z"/>
<path d="M4360 1805 c0 -27 214 -261 260 -285 14 -7 -14 25 -61 71 -47 46
-110 114 -139 152 -51 64 -60 73 -60 62z"/>
<path d="M6545 1683 c-30 -23 -267 -136 -370 -176 -168 -65 -257 -80 -465 -81
-156 0 -202 3 -292 22 -174 37 -307 87 -423 160 -33 20 -37 21 -22 5 25 -29
201 -118 279 -142 180 -55 382 -76 578 -60 218 17 344 51 518 141 106 54 250
148 226 148 -5 0 -18 -8 -29 -17z"/>
<path d="M6950 1599 c0 -5 5 -7 10 -4 6 3 10 8 10 11 0 2 -4 4 -10 4 -5 0 -10
-5 -10 -11z"/>
<path d="M6864 1518 l-19 -23 23 19 c21 18 27 26 19 26 -2 0 -12 -10 -23 -22z"/>
<path d="M6525 1448 c-115 -21 -133 -27 -65 -21 35 3 82 11 105 18 47 15 31
16 -40 3z"/>
<path d="M6295 1419 c-26 -6 -23 -7 18 -8 26 0 47 1 47 3 0 9 -37 12 -65 5z"/>
<path d="M6470 1390 l-25 -8 25 0 c14 0 34 3 45 8 l20 9 -20 -1 c-11 0 -31 -4
-45 -8z"/>
<path d="M5026 1344 c-9 -35 -2 -40 12 -9 6 13 7 27 3 30 -5 2 -12 -7 -15 -21z"/>
<path d="M5012 1275 c0 -16 2 -22 5 -12 2 9 2 23 0 30 -3 6 -5 -1 -5 -18z"/>
<path d="M6472 6505 c-146 -141 -195 -205 -250 -330 -35 -80 -56 -181 -46
-222 15 -62 110 -128 151 -104 16 9 16 10 -5 11 -27 0 -68 25 -76 46 -3 8 -2
12 4 9 5 -3 24 1 42 9 l33 14 -53 -5 c-65 -7 -64 9 3 52 58 36 58 44 0 12 -51
-29 -55 -23 -20 33 30 47 33 72 5 39 -66 -81 48 151 124 249 25 33 78 95 118
139 69 75 140 183 120 183 -5 0 -72 -61 -150 -135z"/>
<path d="M4400 6570 c0 -5 35 -45 78 -87 139 -138 180 -207 238 -403 37 -123
50 -148 68 -130 17 17 6 200 -16 265 -38 113 -134 222 -285 323 -62 42 -83 50
-83 32z"/>
<path d="M4464 6445 c28 -33 51 -62 53 -64 2 -2 6 -2 9 2 4 3 -1 13 -10 22 -9
9 -21 25 -26 35 -5 10 -25 29 -42 41 -29 21 -28 17 16 -36z"/>
<path d="M4559 6288 c22 -46 43 -92 47 -103 3 -11 8 -15 11 -8 4 11 -82 193
-92 193 -3 0 13 -37 34 -82z"/>
<path d="M4566 6335 c4 -8 11 -15 16 -15 6 0 5 6 -2 15 -7 8 -14 15 -16 15 -2
0 -1 -7 2 -15z"/>
<path d="M4618 6245 c2 -14 6 -25 8 -25 2 0 4 11 4 25 0 14 -4 25 -9 25 -4 0
-6 -11 -3 -25z"/>
<path d="M4672 6130 c0 -14 2 -19 5 -12 2 6 2 18 0 25 -3 6 -5 1 -5 -13z"/>
<path d="M4631 6133 c-1 -18 19 -67 25 -61 3 3 -2 21 -10 39 -8 19 -15 29 -15
22z"/>
<path d="M6142 6091 c-7 -21 -11 -54 -11 -72 1 -26 3 -28 6 -9 2 14 8 44 15
68 14 54 5 65 -10 13z"/>
<path d="M6314 6108 l-19 -23 23 19 c21 18 27 26 19 26 -2 0 -12 -10 -23 -22z"/>
<path d="M6369 6113 c-13 -16 -12 -17 4 -4 9 7 17 15 17 17 0 8 -8 3 -21 -13z"/>
<path d="M4690 6009 c0 -8 7 -24 15 -35 18 -24 19 -7 0 26 -9 16 -14 19 -15 9z"/>
<path d="M4560 5882 c0 -13 63 -32 107 -32 40 0 74 22 54 34 -5 4 -12 2 -16
-4 -8 -13 -101 -13 -126 0 -10 6 -19 7 -19 2z"/>
<path d="M5035 5811 c-3 -5 3 -12 14 -16 10 -3 29 -14 41 -25 13 -11 26 -17
29 -14 7 7 -55 64 -69 64 -5 0 -11 -4 -15 -9z"/>
<path d="M5906 5729 c-42 -33 -30 -40 20 -12 36 20 53 24 85 19 27 -4 38 -3
34 4 -12 19 -110 12 -139 -11z"/>
<path d="M4934 5691 c-29 -18 -52 -41 -40 -41 3 0 21 10 41 21 62 37 130 13
160 -56 9 -19 14 -24 14 -12 1 25 -40 84 -67 97 -34 15 -73 12 -108 -9z"/>
<path d="M5990 5670 c0 -5 13 -7 29 -4 16 3 38 1 50 -5 11 -7 21 -8 21 -2 0 5
-7 12 -16 15 -25 10 -84 7 -84 -4z"/>
<path d="M5989 5612 c-44 -23 -69 -74 -69 -140 0 -61 18 -102 55 -126 24 -16
162 -56 195 -56 40 0 -47 35 -135 55 l-30 7 32 13 c71 30 98 146 51 215 -31
44 -58 53 -99 32z m49 -72 c14 -23 8 -40 -13 -40 -19 0 -27 17 -20 40 8 25 17
25 33 0z"/>
<path d="M4974 5610 c-40 -16 -74 -68 -74 -113 0 -54 17 -87 57 -112 18 -11
32 -23 33 -26 0 -3 -33 -9 -74 -12 -81 -7 -109 -15 -100 -28 7 -12 130 -11
176 1 57 16 96 54 113 113 34 115 -39 214 -131 177z m58 -42 c9 -7 18 -22 20
-33 2 -16 -3 -20 -25 -21 -15 -1 -32 5 -38 12 -6 8 -15 11 -20 8 -13 -8 -11
20 3 34 15 15 40 15 60 0z"/>
<path d="M5426 5549 c-152 -37 -329 -225 -411 -434 -17 -45 -41 -84 -66 -108
-24 -24 -41 -52 -45 -74 -7 -35 1 -127 12 -157 8 -21 21 -20 21 2 -1 53 4 92
11 92 4 0 23 -28 42 -62 43 -75 107 -132 168 -152 54 -16 164 -30 143 -17 -33
21 30 26 319 27 232 0 310 3 325 13 43 28 95 109 107 166 7 37 14 52 19 43 11
-16 2 -66 -18 -97 -18 -28 -5 -46 26 -36 32 10 51 57 51 122 0 50 -5 68 -34
113 -19 30 -54 90 -77 133 -99 179 -252 346 -366 400 -71 33 -160 43 -227 26z
m199 -48 c76 -27 145 -80 224 -173 70 -82 138 -185 128 -194 -3 -3 -24 22 -47
55 -112 165 -268 265 -416 265 -100 0 -180 -40 -290 -147 -87 -83 -134 -146
-171 -231 -17 -39 -22 -45 -22 -26 -1 33 48 145 86 201 68 98 219 229 298 257
49 17 150 14 210 -7z m-34 -87 c83 -25 149 -75 277 -211 144 -153 156 -174
150 -264 -6 -82 -37 -150 -85 -186 -33 -26 -42 -27 -216 -36 -100 -5 -261 -10
-359 -10 l-176 -2 -43 30 c-87 61 -121 203 -76 315 52 126 237 315 354 360 60
24 104 25 174 4z"/>
<path d="M5308 5168 c-98 -104 -122 -178 -72 -217 41 -32 96 -28 128 9 31 37
40 83 33 161 -5 58 -19 89 -39 89 -6 0 -28 -19 -50 -42z"/>
<path d="M5660 5148 c-53 -87 14 -244 94 -224 71 18 86 95 36 183 -47 81 -96
97 -130 41z"/>
<path d="M5413 4733 c15 -2 39 -2 55 0 15 2 2 4 -28 4 -30 0 -43 -2 -27 -4z"/>
<path d="M6516 4487 c-69 -129 -200 -279 -366 -420 -41 -35 -42 -37 -11 -20
34 18 182 159 257 243 58 66 162 235 152 246 -2 2 -17 -20 -32 -49z"/>
<path d="M5315 4500 c10 -16 85 -47 145 -59 84 -18 223 5 288 47 35 23 21 24
-34 3 -69 -27 -178 -40 -244 -31 -59 9 -119 27 -134 41 -14 12 -29 11 -21 -1z"/>
<path d="M4447 5579 c7 -7 15 -10 18 -7 3 3 -2 9 -12 12 -14 6 -15 5 -6 -5z"/>
<path d="M4495 5570 c3 -5 8 -10 11 -10 2 0 4 5 4 10 0 6 -5 10 -11 10 -5 0
-7 -4 -4 -10z"/>
<path d="M4470 5541 c0 -5 5 -13 10 -16 6 -3 10 -2 10 4 0 5 -4 13 -10 16 -5
3 -10 2 -10 -4z"/>
<path d="M8355 4614 c-49 -14 -128 -28 -173 -31 -47 -3 -78 -9 -70 -14 21 -12
175 9 266 37 45 13 82 27 82 29 0 7 -5 6 -105 -21z"/>
<path d="M7880 4620 c0 -5 15 -10 33 -10 24 0 28 3 17 10 -20 13 -50 13 -50 0z"/>
<path d="M4915 850 c-3 -6 1 -7 9 -4 18 7 21 14 7 14 -6 0 -13 -4 -16 -10z"/>
<path d="M6877 7950 c-3 -8 -8 -31 -11 -50 -3 -19 -16 -79 -27 -132 l-22 -98
-86 -1 c-119 -3 -121 -3 -119 -14 2 -15 120 -95 140 -95 10 0 18 -7 18 -15 0
-8 -25 -74 -56 -146 -31 -71 -54 -132 -52 -134 2 -2 35 21 74 53 39 31 89 70
112 86 l42 29 29 -24 c16 -13 64 -52 106 -86 42 -35 80 -63 86 -63 5 0 -18 54
-51 120 -33 66 -60 124 -60 129 0 5 49 41 110 80 60 40 111 75 114 79 2 4 -60
6 -139 4 l-142 -3 -18 98 c-23 131 -41 201 -48 183z"/>
<path d="M3996 7843 c-4 -32 -12 -84 -18 -116 l-11 -59 -88 4 c-49 1 -89 1
-89 -2 0 -3 19 -17 43 -32 23 -15 57 -40 75 -55 l32 -28 -24 -75 c-28 -85 -20
-116 17 -65 12 16 34 43 48 60 l27 29 62 -64 c34 -36 59 -56 55 -45 -24 64
-45 130 -45 141 0 6 35 34 78 60 l77 49 -45 7 c-25 3 -66 7 -91 7 -54 1 -51
-6 -70 144 -7 53 -16 97 -20 97 -3 0 -10 -26 -13 -57z"/>
<path d="M2514 5105 c-10 -39 15 -149 51 -223 36 -74 118 -165 169 -186 51
-21 126 -28 181 -16 63 13 175 58 195 78 13 13 13 14 -1 9 -228 -79 -347 -65
-450 51 -64 73 -125 227 -104 263 4 5 32 -8 63 -30 66 -45 162 -94 169 -88 2
3 -24 20 -59 39 -34 18 -83 54 -108 81 -54 55 -95 64 -106 22z"/>
<path d="M2590 4987 c0 -4 7 -24 16 -45 29 -71 100 -125 183 -138 57 -9 51 2
-11 20 -71 20 -134 68 -163 125 -13 25 -24 42 -25 38z"/>
<path d="M3150 4780 c-13 -8 -13 -10 2 -10 9 0 20 5 23 10 8 13 -5 13 -25 0z"/>
<path d="M2738 4599 c25 -29 106 -73 124 -67 6 2 -10 12 -35 22 -26 10 -47 22
-47 27 0 5 -5 9 -12 9 -6 0 -21 8 -32 17 -18 15 -18 14 2 -8z"/>
<path d="M3235 4350 c-3 -6 1 -7 9 -4 18 7 21 14 7 14 -6 0 -13 -4 -16 -10z"/>
<path d="M3660 4350 c-8 -5 -12 -11 -9 -14 2 -3 11 -1 19 4 8 5 12 11 9 14 -2
3 -11 1 -19 -4z"/>
<path d="M3729 4323 c-13 -17 -13 -17 6 -3 11 8 22 16 24 17 2 2 0 3 -6 3 -6
0 -17 -8 -24 -17z"/>
</g>
</svg>
